<?xml version="1.0" encoding="utf-8"?>
<!-- Generator: Adobe Illustrator 16.0.0, SVG Export Plug-In . SVG Version: 6.00 Build 0)  -->
<!DOCTYPE svg PUBLIC "-//W3C//DTD SVG 1.1//EN" "http://www.w3.org/Graphics/SVG/1.1/DTD/svg11.dtd">
<svg version="1.1" id="圖層_1" xmlns="http://www.w3.org/2000/svg" xmlns:xlink="http://www.w3.org/1999/xlink" x="0px" y="0px"
	 width="612px" height="792px" viewBox="0 0 612 792" enable-background="new 0 0 612 792" xml:space="preserve">
<g>
	<path d="M496.515,613.75c-8.384,0-16.769-3.183-23.133-9.547c-12.791-12.791-12.791-33.477,0-46.268
		c89.29-89.291,89.29-234.58,0-323.87c-12.791-12.791-12.791-33.477,0-46.268c12.79-12.791,33.476-12.791,46.267,0
		C575.28,243.428,605.88,317.358,605.88,396c0,78.643-30.601,152.572-86.231,208.203C513.284,610.567,504.9,613.75,496.515,613.75z
		 M380.296,552.06c-8.384,0-16.769-3.183-23.133-9.547c-12.791-12.791-12.791-33.477,0-46.268
		c55.264-55.264,55.264-145.228,0-200.491c-12.791-12.791-12.791-33.477,0-46.268c12.79-12.791,33.476-12.791,46.267,0
		c80.784,80.784,80.784,212.242,0,293.026C397.066,548.878,388.681,552.06,380.296,552.06z M279.684,100.649
		c17.503-17.504,31.824-11.567,31.824,13.219v564.325c0,24.725-14.321,30.661-31.824,13.158L115.178,526.845H6.12V265.154h109.058
		L279.684,100.649z"/>
</g>
<g>
	<g>
		<path d="M465.287,111.286c-14.775,18.415-29.551,36.829-44.326,55.243c-34.951,43.561-69.903,87.122-104.855,130.683
			c-41.068,51.184-82.136,102.367-123.205,153.55c-33.124,41.283-66.248,82.565-99.373,123.849
			c-11.414,14.225-22.828,28.45-34.242,42.676c-5.203,6.484-8.787,12.568-8.787,21.213c0,7.925,3.186,15.612,8.787,21.213
			c10.613,10.613,32.177,12.774,42.427,0c14.775-18.414,29.55-36.828,44.325-55.243c34.952-43.561,69.904-87.121,104.856-130.682
			c41.068-51.184,82.137-102.368,123.205-153.551c33.124-41.283,66.248-82.565,99.372-123.848
			c11.414-14.225,22.827-28.45,34.241-42.675c5.203-6.485,8.787-12.569,8.787-21.213c0-7.925-3.187-15.612-8.787-21.213
			C497.101,100.674,475.536,98.512,465.287,111.286L465.287,111.286z"/>
	</g>
</g>
</svg>
