<?xml version="1.0" encoding="utf-8"?>
<!-- Svg Vector Icons : http://www.onlinewebfonts.com/icon -->
<!DOCTYPE svg PUBLIC "-//W3C//DTD SVG 1.1//EN" "http://www.w3.org/Graphics/SVG/1.1/DTD/svg11.dtd">
<svg version="1.1" xmlns="http://www.w3.org/2000/svg" xmlns:xlink="http://www.w3.org/1999/xlink" x="0px" y="0px" viewBox="0 0 1000 1000" enable-background="new 0 0 1000 1000" xml:space="preserve">
<metadata> Svg Vector Icons : http://www.onlinewebfonts.com/icon </metadata>
<g><path d="M811.3,855.8c-13.7,0-27.4-5.2-37.8-15.6c-20.9-20.9-20.9-54.7,0-75.6c145.9-145.9,145.9-383.3,0-529.2c-20.9-20.9-20.9-54.7,0-75.6c20.9-20.9,54.7-20.9,75.6,0C940,250.7,990,371.5,990,500c0,128.5-50,249.3-140.9,340.2C838.7,850.6,825,855.8,811.3,855.8z M621.4,755c-13.7,0-27.4-5.2-37.8-15.6c-20.9-20.9-20.9-54.7,0-75.6c90.3-90.3,90.3-237.3,0-327.6c-20.9-20.9-20.9-54.7,0-75.6c20.9-20.9,54.7-20.9,75.6,0c132,132,132,346.8,0,478.8C648.8,749.8,635.1,755,621.4,755z M457,17.4c28.6-28.6,52-18.9,52,21.6v922.1c0,40.4-23.4,50.1-52,21.5L188.2,713.8H10V286.2h178.2L457,17.4z"/></g>
</svg>